<?xml version="1.0" standalone="no"?>
<!DOCTYPE svg PUBLIC "-//W3C//DTD SVG 20010904//EN"
 "http://www.w3.org/TR/2001/REC-SVG-20010904/DTD/svg10.dtd">
<svg version="1.0" xmlns="http://www.w3.org/2000/svg"
 width="113.000000pt" height="87.000000pt" viewBox="0 0 113.000000 87.000000"
 preserveAspectRatio="xMidYMid meet">

<g transform="translate(0.000000,87.000000) scale(0.100000,-0.100000)"
fill="#000000" stroke="none">
<path d="M640 806 l-175 -61 -78 -93 c-43 -52 -76 -99 -74 -105 2 -7 31 -85
63 -174 33 -90 64 -164 69 -166 6 -2 88 20 184 48 l174 52 75 103 75 103 -57
166 c-31 91 -62 171 -69 177 -9 7 -61 -7 -187 -50z m96 -24 c-3 -5 -56 -26
-118 -47 -103 -35 -117 -43 -160 -89 -59 -64 -63 -48 -5 19 40 44 53 52 153
86 113 39 139 45 130 31z m122 -120 c23 -70 42 -134 42 -141 0 -19 -93 -142
-101 -134 -3 5 -27 69 -52 144 l-45 137 50 61 c28 34 53 61 57 61 4 0 26 -58
49 -128z m-149 -169 c28 -80 49 -148 47 -150 -3 -3 -68 -24 -146 -48 l-141
-43 -10 21 c-5 12 -29 76 -53 142 -37 102 -42 121 -29 129 14 8 260 94 274 95
4 1 30 -65 58 -146z"/>
<path d="M233 490 c-20 -8 -33 -40 -17 -40 28 0 94 25 94 36 0 16 -42 18 -77
4z"/>
<path d="M235 431 c-39 -11 -61 -24 -63 -34 -4 -22 17 -22 93 1 37 11 60 24
60 32 0 21 -22 21 -90 1z"/>
<path d="M185 352 c-103 -35 -131 -53 -88 -60 27 -4 246 71 251 86 6 21 -47
12 -163 -26z"/>
<path d="M256 310 c-94 -30 -116 -44 -100 -60 14 -14 209 52 209 70 0 21 -15
20 -109 -10z"/>
<path d="M318 266 c-48 -15 -68 -33 -45 -42 24 -9 101 20 105 39 4 19 -7 20
-60 3z"/>
<path d="M12 65 c0 -39 2 -51 7 -35 4 15 15 26 28 28 17 3 22 -3 26 -25 2 -15
4 -1 4 32 0 33 -2 48 -4 33 -6 -40 -50 -40 -56 0 -2 15 -4 0 -5 -33z"/>
<path d="M447 113 c-11 -10 -8 -103 3 -103 6 0 10 9 10 19 0 12 8 21 21 23 12
2 27 11 33 21 9 15 7 21 -8 33 -21 15 -48 18 -59 7z m51 -30 c-5 -26 -38 -29
-38 -4 0 15 6 21 21 21 14 0 19 -5 17 -17z"/>
<path d="M693 65 c0 -33 2 -50 4 -37 5 27 20 29 28 2 3 -11 11 -20 16 -20 5 0
3 13 -5 29 -11 21 -12 31 -3 40 8 8 8 11 0 11 -7 0 -15 -6 -20 -12 -5 -9 -10
-3 -14 17 -5 21 -7 12 -6 -30z"/>
<path d="M816 105 c-19 -19 -21 -66 -4 -83 15 -15 55 -16 63 -2 4 7 -2 9 -18
5 -30 -8 -49 19 -40 54 4 18 11 22 30 18 15 -3 22 0 20 7 -6 18 -33 18 -51 1z"/>
<path d="M902 65 c0 -42 2 -51 7 -30 3 17 13 30 21 30 8 0 18 -13 22 -30 6
-26 6 -25 5 10 -2 33 -6 41 -24 43 -12 2 -24 11 -26 20 -3 9 -5 -10 -5 -43z"/>
<path d="M985 110 c-3 -5 -1 -10 4 -10 6 0 11 5 11 10 0 6 -2 10 -4 10 -3 0
-8 -4 -11 -10z"/>
<path d="M1027 113 c-11 -10 -8 -103 3 -103 6 0 10 25 10 55 0 56 -1 60 -13
48z"/>
<path d="M122 81 c-22 -14 -11 -65 15 -69 29 -4 48 30 33 58 -11 21 -27 25
-48 11z m38 -30 c0 -11 -5 -23 -11 -27 -15 -9 -33 12 -26 30 9 23 37 20 37 -3z"/>
<path d="M196 83 c-10 -10 -7 -73 4 -73 6 0 10 13 10 30 0 43 30 41 31 -2 l1
-33 7 29 c9 41 31 46 31 7 0 -17 5 -31 11 -31 6 0 9 16 7 38 -3 37 -3 37 -49
39 -26 1 -49 -1 -53 -4z"/>
<path d="M332 78 c-31 -31 3 -90 39 -67 11 7 9 9 -8 9 -13 0 -23 5 -23 10 0 6
8 10 18 10 26 0 33 10 21 31 -11 22 -30 24 -47 7z m33 -18 c-3 -5 -10 -10 -16
-10 -5 0 -9 5 -9 10 0 6 7 10 16 10 8 0 12 -4 9 -10z"/>
<path d="M535 81 c-3 -7 3 -11 17 -12 l23 0 -22 -9 c-25 -10 -31 -46 -10 -53
31 -10 48 5 45 42 -2 28 -8 37 -25 39 -11 2 -24 -2 -28 -7z m35 -52 c0 -5 -7
-9 -15 -9 -15 0 -20 12 -9 23 8 8 24 -1 24 -14z"/>
<path d="M617 83 c-11 -10 -8 -58 4 -70 6 -6 18 -9 25 -6 20 7 17 21 -3 19
-12 0 -19 7 -21 22 -3 17 2 22 18 22 12 0 18 5 15 10 -7 11 -28 13 -38 3z"/>
<path d="M987 83 c-11 -10 -8 -73 3 -73 6 0 10 18 10 40 0 41 -2 45 -13 33z"/>
<path d="M1072 81 c-8 -5 -12 -21 -10 -37 2 -23 8 -29 28 -31 14 -1 18 0 8 3
-24 7 -23 24 0 24 26 0 33 10 21 31 -10 20 -26 24 -47 10z m33 -21 c-3 -5 -10
-10 -16 -10 -5 0 -9 5 -9 10 0 6 7 10 16 10 8 0 12 -4 9 -10z"/>
</g>
</svg>
